<mxfile host="app.diagrams.net" modified="2023-11-26T04:07:10.741Z" agent="Mozilla/5.0 (Windows NT 10.0; Win64; x64) AppleWebKit/537.36 (KHTML, like Gecko) Chrome/119.0.0.0 Safari/537.36" etag="s8HAXTn68L0gdouVE0Wt" version="22.1.4" type="github">
  <diagram name="Page-1" id="5f0bae14-7c28-e335-631c-24af17079c00">
    <mxGraphModel dx="1318" dy="574" grid="1" gridSize="10" guides="1" tooltips="1" connect="1" arrows="1" fold="1" page="1" pageScale="1" pageWidth="1100" pageHeight="850" background="none" math="0" shadow="0">
      <root>
        <mxCell id="0" />
        <mxCell id="1" parent="0" />
        <mxCell id="tjLaSWsOAfRgM3-zYXnQ-56" style="edgeStyle=orthogonalEdgeStyle;rounded=0;orthogonalLoop=1;jettySize=auto;html=1;exitX=0;exitY=0;exitDx=30;exitDy=0;exitPerimeter=0;" edge="1" parent="1" source="tjLaSWsOAfRgM3-zYXnQ-6" target="tjLaSWsOAfRgM3-zYXnQ-21">
          <mxGeometry relative="1" as="geometry" />
        </mxCell>
        <mxCell id="tjLaSWsOAfRgM3-zYXnQ-6" value="Autenticación" style="verticalAlign=top;align=left;spacingTop=8;spacingLeft=2;spacingRight=12;shape=cube;size=10;direction=south;fontStyle=4;html=1;whiteSpace=wrap;" vertex="1" parent="1">
          <mxGeometry x="370" y="45" width="135" height="70" as="geometry" />
        </mxCell>
        <mxCell id="tjLaSWsOAfRgM3-zYXnQ-27" value="" style="edgeStyle=orthogonalEdgeStyle;rounded=0;orthogonalLoop=1;jettySize=auto;html=1;" edge="1" parent="1" source="tjLaSWsOAfRgM3-zYXnQ-46">
          <mxGeometry relative="1" as="geometry">
            <mxPoint x="370" y="80" as="targetPoint" />
          </mxGeometry>
        </mxCell>
        <mxCell id="tjLaSWsOAfRgM3-zYXnQ-48" value="" style="edgeStyle=orthogonalEdgeStyle;rounded=0;orthogonalLoop=1;jettySize=auto;html=1;" edge="1" parent="1" source="tjLaSWsOAfRgM3-zYXnQ-8" target="tjLaSWsOAfRgM3-zYXnQ-39">
          <mxGeometry relative="1" as="geometry" />
        </mxCell>
        <mxCell id="tjLaSWsOAfRgM3-zYXnQ-8" value="Usuario" style="image;html=1;image=img/lib/clip_art/people/Suit_Woman_Black_128x128.png" vertex="1" parent="1">
          <mxGeometry x="100" y="35" width="95" height="90" as="geometry" />
        </mxCell>
        <mxCell id="tjLaSWsOAfRgM3-zYXnQ-53" value="" style="edgeStyle=orthogonalEdgeStyle;rounded=0;orthogonalLoop=1;jettySize=auto;html=1;" edge="1" parent="1" source="tjLaSWsOAfRgM3-zYXnQ-11" target="tjLaSWsOAfRgM3-zYXnQ-17">
          <mxGeometry relative="1" as="geometry" />
        </mxCell>
        <mxCell id="tjLaSWsOAfRgM3-zYXnQ-11" value="&lt;p style=&quot;border: 0px solid rgb(217, 217, 227); box-sizing: border-box; --tw-border-spacing-x: 0; --tw-border-spacing-y: 0; --tw-translate-x: 0; --tw-translate-y: 0; --tw-rotate: 0; --tw-skew-x: 0; --tw-skew-y: 0; --tw-scale-x: 1; --tw-scale-y: 1; --tw-pan-x: ; --tw-pan-y: ; --tw-pinch-zoom: ; --tw-scroll-snap-strictness: proximity; --tw-gradient-from-position: ; --tw-gradient-via-position: ; --tw-gradient-to-position: ; --tw-ordinal: ; --tw-slashed-zero: ; --tw-numeric-figure: ; --tw-numeric-spacing: ; --tw-numeric-fraction: ; --tw-ring-inset: ; --tw-ring-offset-width: 0px; --tw-ring-offset-color: #fff; --tw-ring-color: rgba(69,89,164,.5); --tw-ring-offset-shadow: 0 0 transparent; --tw-ring-shadow: 0 0 transparent; --tw-shadow: 0 0 transparent; --tw-shadow-colored: 0 0 transparent; --tw-blur: ; --tw-brightness: ; --tw-contrast: ; --tw-grayscale: ; --tw-hue-rotate: ; --tw-invert: ; --tw-saturate: ; --tw-sepia: ; --tw-drop-shadow: ; --tw-backdrop-blur: ; --tw-backdrop-brightness: ; --tw-backdrop-contrast: ; --tw-backdrop-grayscale: ; --tw-backdrop-hue-rotate: ; --tw-backdrop-invert: ; --tw-backdrop-opacity: ; --tw-backdrop-saturate: ; --tw-backdrop-sepia: ; margin: 0px; color: rgb(15, 15, 15); font-family: Söhne, ui-sans-serif, system-ui, -apple-system, &amp;quot;Segoe UI&amp;quot;, Roboto, Ubuntu, Cantarell, &amp;quot;Noto Sans&amp;quot;, sans-serif, &amp;quot;Helvetica Neue&amp;quot;, Arial, &amp;quot;Apple Color Emoji&amp;quot;, &amp;quot;Segoe UI Emoji&amp;quot;, &amp;quot;Segoe UI Symbol&amp;quot;, &amp;quot;Noto Color Emoji&amp;quot;; text-align: left;&quot;&gt;&lt;font style=&quot;font-size: 12px;&quot;&gt;Gestor de Clientes y Mascotas.&lt;/font&gt;&lt;/p&gt;&lt;ul style=&quot;border: 0px solid rgb(217, 217, 227); box-sizing: border-box; --tw-border-spacing-x: 0; --tw-border-spacing-y: 0; --tw-translate-x: 0; --tw-translate-y: 0; --tw-rotate: 0; --tw-skew-x: 0; --tw-skew-y: 0; --tw-scale-x: 1; --tw-scale-y: 1; --tw-pan-x: ; --tw-pan-y: ; --tw-pinch-zoom: ; --tw-scroll-snap-strictness: proximity; --tw-gradient-from-position: ; --tw-gradient-via-position: ; --tw-gradient-to-position: ; --tw-ordinal: ; --tw-slashed-zero: ; --tw-numeric-figure: ; --tw-numeric-spacing: ; --tw-numeric-fraction: ; --tw-ring-inset: ; --tw-ring-offset-width: 0px; --tw-ring-offset-color: #fff; --tw-ring-color: rgba(69,89,164,.5); --tw-ring-offset-shadow: 0 0 transparent; --tw-ring-shadow: 0 0 transparent; --tw-shadow: 0 0 transparent; --tw-shadow-colored: 0 0 transparent; --tw-blur: ; --tw-brightness: ; --tw-contrast: ; --tw-grayscale: ; --tw-hue-rotate: ; --tw-invert: ; --tw-saturate: ; --tw-sepia: ; --tw-drop-shadow: ; --tw-backdrop-blur: ; --tw-backdrop-brightness: ; --tw-backdrop-contrast: ; --tw-backdrop-grayscale: ; --tw-backdrop-hue-rotate: ; --tw-backdrop-invert: ; --tw-backdrop-opacity: ; --tw-backdrop-saturate: ; --tw-backdrop-sepia: ; list-style-position: initial; list-style-image: initial; margin: 0px 0px 0px 1rem; padding: 0px; display: flex; flex-direction: column; color: rgb(15, 15, 15); font-family: Söhne, ui-sans-serif, system-ui, -apple-system, &amp;quot;Segoe UI&amp;quot;, Roboto, Ubuntu, Cantarell, &amp;quot;Noto Sans&amp;quot;, sans-serif, &amp;quot;Helvetica Neue&amp;quot;, Arial, &amp;quot;Apple Color Emoji&amp;quot;, &amp;quot;Segoe UI Emoji&amp;quot;, &amp;quot;Segoe UI Symbol&amp;quot;, &amp;quot;Noto Color Emoji&amp;quot;; font-size: 16px; text-align: left;&quot;&gt;&lt;/ul&gt;" style="html=1;dropTarget=0;whiteSpace=wrap;" vertex="1" parent="1">
          <mxGeometry x="520" y="150" width="160" height="100" as="geometry" />
        </mxCell>
        <mxCell id="tjLaSWsOAfRgM3-zYXnQ-12" value="" style="shape=module;jettyWidth=8;jettyHeight=4;" vertex="1" parent="tjLaSWsOAfRgM3-zYXnQ-11">
          <mxGeometry x="1" width="20" height="20" relative="1" as="geometry">
            <mxPoint x="-23" y="7" as="offset" />
          </mxGeometry>
        </mxCell>
        <mxCell id="tjLaSWsOAfRgM3-zYXnQ-13" value="" style="shape=mxgraph.signs.animals.dog_on_leash;html=1;pointerEvents=1;fillColor=#000000;strokeColor=none;verticalLabelPosition=bottom;verticalAlign=top;align=center;" vertex="1" parent="1">
          <mxGeometry x="630" y="210" width="50" height="40" as="geometry" />
        </mxCell>
        <mxCell id="tjLaSWsOAfRgM3-zYXnQ-16" value="" style="outlineConnect=0;dashed=0;verticalLabelPosition=bottom;verticalAlign=top;align=center;html=1;shape=mxgraph.aws3.user;fillColor=#D2D3D3;gradientColor=none;" vertex="1" parent="1">
          <mxGeometry x="600" y="210" width="26.25" height="40" as="geometry" />
        </mxCell>
        <mxCell id="tjLaSWsOAfRgM3-zYXnQ-17" value="Historial de Atenciones y Servicios" style="shape=datastore;whiteSpace=wrap;html=1;" vertex="1" parent="1">
          <mxGeometry x="555" y="282" width="90" height="90" as="geometry" />
        </mxCell>
        <mxCell id="tjLaSWsOAfRgM3-zYXnQ-19" value="&lt;p style=&quot;border: 0px solid rgb(217, 217, 227); box-sizing: border-box; --tw-border-spacing-x: 0; --tw-border-spacing-y: 0; --tw-translate-x: 0; --tw-translate-y: 0; --tw-rotate: 0; --tw-skew-x: 0; --tw-skew-y: 0; --tw-scale-x: 1; --tw-scale-y: 1; --tw-pan-x: ; --tw-pan-y: ; --tw-pinch-zoom: ; --tw-scroll-snap-strictness: proximity; --tw-gradient-from-position: ; --tw-gradient-via-position: ; --tw-gradient-to-position: ; --tw-ordinal: ; --tw-slashed-zero: ; --tw-numeric-figure: ; --tw-numeric-spacing: ; --tw-numeric-fraction: ; --tw-ring-inset: ; --tw-ring-offset-width: 0px; --tw-ring-offset-color: #fff; --tw-ring-color: rgba(69,89,164,.5); --tw-ring-offset-shadow: 0 0 transparent; --tw-ring-shadow: 0 0 transparent; --tw-shadow: 0 0 transparent; --tw-shadow-colored: 0 0 transparent; --tw-blur: ; --tw-brightness: ; --tw-contrast: ; --tw-grayscale: ; --tw-hue-rotate: ; --tw-invert: ; --tw-saturate: ; --tw-sepia: ; --tw-drop-shadow: ; --tw-backdrop-blur: ; --tw-backdrop-brightness: ; --tw-backdrop-contrast: ; --tw-backdrop-grayscale: ; --tw-backdrop-hue-rotate: ; --tw-backdrop-invert: ; --tw-backdrop-opacity: ; --tw-backdrop-saturate: ; --tw-backdrop-sepia: ; margin: 0px; color: rgb(15, 15, 15); font-family: Söhne, ui-sans-serif, system-ui, -apple-system, &amp;quot;Segoe UI&amp;quot;, Roboto, Ubuntu, Cantarell, &amp;quot;Noto Sans&amp;quot;, sans-serif, &amp;quot;Helvetica Neue&amp;quot;, Arial, &amp;quot;Apple Color Emoji&amp;quot;, &amp;quot;Segoe UI Emoji&amp;quot;, &amp;quot;Segoe UI Symbol&amp;quot;, &amp;quot;Noto Color Emoji&amp;quot;; text-align: left;&quot;&gt;&lt;font style=&quot;font-size: 14px;&quot;&gt;Gestor de Facturación&lt;/font&gt;&lt;/p&gt;&lt;ul style=&quot;border: 0px solid rgb(217, 217, 227); box-sizing: border-box; --tw-border-spacing-x: 0; --tw-border-spacing-y: 0; --tw-translate-x: 0; --tw-translate-y: 0; --tw-rotate: 0; --tw-skew-x: 0; --tw-skew-y: 0; --tw-scale-x: 1; --tw-scale-y: 1; --tw-pan-x: ; --tw-pan-y: ; --tw-pinch-zoom: ; --tw-scroll-snap-strictness: proximity; --tw-gradient-from-position: ; --tw-gradient-via-position: ; --tw-gradient-to-position: ; --tw-ordinal: ; --tw-slashed-zero: ; --tw-numeric-figure: ; --tw-numeric-spacing: ; --tw-numeric-fraction: ; --tw-ring-inset: ; --tw-ring-offset-width: 0px; --tw-ring-offset-color: #fff; --tw-ring-color: rgba(69,89,164,.5); --tw-ring-offset-shadow: 0 0 transparent; --tw-ring-shadow: 0 0 transparent; --tw-shadow: 0 0 transparent; --tw-shadow-colored: 0 0 transparent; --tw-blur: ; --tw-brightness: ; --tw-contrast: ; --tw-grayscale: ; --tw-hue-rotate: ; --tw-invert: ; --tw-saturate: ; --tw-sepia: ; --tw-drop-shadow: ; --tw-backdrop-blur: ; --tw-backdrop-brightness: ; --tw-backdrop-contrast: ; --tw-backdrop-grayscale: ; --tw-backdrop-hue-rotate: ; --tw-backdrop-invert: ; --tw-backdrop-opacity: ; --tw-backdrop-saturate: ; --tw-backdrop-sepia: ; list-style-position: initial; list-style-image: initial; margin: 0px 0px 0px 1rem; padding: 0px; display: flex; flex-direction: column; color: rgb(15, 15, 15); font-family: Söhne, ui-sans-serif, system-ui, -apple-system, &amp;quot;Segoe UI&amp;quot;, Roboto, Ubuntu, Cantarell, &amp;quot;Noto Sans&amp;quot;, sans-serif, &amp;quot;Helvetica Neue&amp;quot;, Arial, &amp;quot;Apple Color Emoji&amp;quot;, &amp;quot;Segoe UI Emoji&amp;quot;, &amp;quot;Segoe UI Symbol&amp;quot;, &amp;quot;Noto Color Emoji&amp;quot;; font-size: 16px; text-align: left;&quot;&gt;&lt;/ul&gt;" style="shape=image;html=1;verticalAlign=top;verticalLabelPosition=bottom;labelBackgroundColor=#ffffff;imageAspect=0;aspect=fixed;image=https://cdn0.iconfinder.com/data/icons/business-startup-10/50/38-128.png" vertex="1" parent="1">
          <mxGeometry x="880" y="125" width="128" height="128" as="geometry" />
        </mxCell>
        <mxCell id="tjLaSWsOAfRgM3-zYXnQ-57" style="edgeStyle=orthogonalEdgeStyle;rounded=0;orthogonalLoop=1;jettySize=auto;html=1;exitX=0.5;exitY=1;exitDx=0;exitDy=0;exitPerimeter=0;entryX=1;entryY=0.5;entryDx=0;entryDy=0;" edge="1" parent="1" source="tjLaSWsOAfRgM3-zYXnQ-21" target="tjLaSWsOAfRgM3-zYXnQ-11">
          <mxGeometry relative="1" as="geometry" />
        </mxCell>
        <mxCell id="tjLaSWsOAfRgM3-zYXnQ-21" value="Parametrización de Servicios" style="html=1;whiteSpace=wrap;strokeColor=none;fillColor=#0079D6;labelPosition=center;verticalLabelPosition=middle;verticalAlign=top;align=center;fontSize=12;outlineConnect=0;spacingTop=-6;fontColor=#FFFFFF;sketch=0;shape=mxgraph.sitemap.services;" vertex="1" parent="1">
          <mxGeometry x="650" y="25" width="180" height="100" as="geometry" />
        </mxCell>
        <mxCell id="tjLaSWsOAfRgM3-zYXnQ-22" value="Interfaz de Usuario (Web y Móvil)" style="sketch=0;outlineConnect=0;fontColor=#232F3E;gradientColor=none;fillColor=#7AA116;strokeColor=none;dashed=0;verticalLabelPosition=bottom;verticalAlign=top;align=center;html=1;fontSize=12;fontStyle=0;aspect=fixed;pointerEvents=1;shape=mxgraph.aws4.iot_thing_industrial_pc;" vertex="1" parent="1">
          <mxGeometry x="262" y="17" width="28" height="28" as="geometry" />
        </mxCell>
        <mxCell id="tjLaSWsOAfRgM3-zYXnQ-38" value="" style="edgeStyle=orthogonalEdgeStyle;rounded=0;orthogonalLoop=1;jettySize=auto;html=1;entryX=0.5;entryY=1;entryDx=0;entryDy=0;" edge="1" parent="1" target="tjLaSWsOAfRgM3-zYXnQ-24">
          <mxGeometry relative="1" as="geometry">
            <mxPoint x="260" y="329.17" as="sourcePoint" />
            <mxPoint x="369.08359213500125" y="260.0028157299975" as="targetPoint" />
          </mxGeometry>
        </mxCell>
        <mxCell id="tjLaSWsOAfRgM3-zYXnQ-23" value="Servicios Web para Consulta y Citas" style="html=1;whiteSpace=wrap;strokeColor=none;fillColor=#0079D6;labelPosition=center;verticalLabelPosition=middle;verticalAlign=top;align=center;fontSize=12;outlineConnect=0;spacingTop=-6;fontColor=#FFFFFF;sketch=0;shape=mxgraph.sitemap.cloud;" vertex="1" parent="1">
          <mxGeometry x="47.5" y="280" width="200" height="92" as="geometry" />
        </mxCell>
        <mxCell id="tjLaSWsOAfRgM3-zYXnQ-24" value="&lt;p style=&quot;border: 0px solid rgb(217, 217, 227); box-sizing: border-box; --tw-border-spacing-x: 0; --tw-border-spacing-y: 0; --tw-translate-x: 0; --tw-translate-y: 0; --tw-rotate: 0; --tw-skew-x: 0; --tw-skew-y: 0; --tw-scale-x: 1; --tw-scale-y: 1; --tw-pan-x: ; --tw-pan-y: ; --tw-pinch-zoom: ; --tw-scroll-snap-strictness: proximity; --tw-gradient-from-position: ; --tw-gradient-via-position: ; --tw-gradient-to-position: ; --tw-ordinal: ; --tw-slashed-zero: ; --tw-numeric-figure: ; --tw-numeric-spacing: ; --tw-numeric-fraction: ; --tw-ring-inset: ; --tw-ring-offset-width: 0px; --tw-ring-offset-color: #fff; --tw-ring-color: rgba(69,89,164,.5); --tw-ring-offset-shadow: 0 0 transparent; --tw-ring-shadow: 0 0 transparent; --tw-shadow: 0 0 transparent; --tw-shadow-colored: 0 0 transparent; --tw-blur: ; --tw-brightness: ; --tw-contrast: ; --tw-grayscale: ; --tw-hue-rotate: ; --tw-invert: ; --tw-saturate: ; --tw-sepia: ; --tw-drop-shadow: ; --tw-backdrop-blur: ; --tw-backdrop-brightness: ; --tw-backdrop-contrast: ; --tw-backdrop-grayscale: ; --tw-backdrop-hue-rotate: ; --tw-backdrop-invert: ; --tw-backdrop-opacity: ; --tw-backdrop-saturate: ; --tw-backdrop-sepia: ; margin: 0px; color: rgb(15, 15, 15); font-family: Söhne, ui-sans-serif, system-ui, -apple-system, &amp;quot;Segoe UI&amp;quot;, Roboto, Ubuntu, Cantarell, &amp;quot;Noto Sans&amp;quot;, sans-serif, &amp;quot;Helvetica Neue&amp;quot;, Arial, &amp;quot;Apple Color Emoji&amp;quot;, &amp;quot;Segoe UI Emoji&amp;quot;, &amp;quot;Segoe UI Symbol&amp;quot;, &amp;quot;Noto Color Emoji&amp;quot;; text-align: left;&quot;&gt;&lt;font style=&quot;font-size: 12px;&quot;&gt;Conexión a Internet&lt;/font&gt;&lt;/p&gt;&lt;ul style=&quot;border: 0px solid rgb(217, 217, 227); box-sizing: border-box; --tw-border-spacing-x: 0; --tw-border-spacing-y: 0; --tw-translate-x: 0; --tw-translate-y: 0; --tw-rotate: 0; --tw-skew-x: 0; --tw-skew-y: 0; --tw-scale-x: 1; --tw-scale-y: 1; --tw-pan-x: ; --tw-pan-y: ; --tw-pinch-zoom: ; --tw-scroll-snap-strictness: proximity; --tw-gradient-from-position: ; --tw-gradient-via-position: ; --tw-gradient-to-position: ; --tw-ordinal: ; --tw-slashed-zero: ; --tw-numeric-figure: ; --tw-numeric-spacing: ; --tw-numeric-fraction: ; --tw-ring-inset: ; --tw-ring-offset-width: 0px; --tw-ring-offset-color: #fff; --tw-ring-color: rgba(69,89,164,.5); --tw-ring-offset-shadow: 0 0 transparent; --tw-ring-shadow: 0 0 transparent; --tw-shadow: 0 0 transparent; --tw-shadow-colored: 0 0 transparent; --tw-blur: ; --tw-brightness: ; --tw-contrast: ; --tw-grayscale: ; --tw-hue-rotate: ; --tw-invert: ; --tw-saturate: ; --tw-sepia: ; --tw-drop-shadow: ; --tw-backdrop-blur: ; --tw-backdrop-brightness: ; --tw-backdrop-contrast: ; --tw-backdrop-grayscale: ; --tw-backdrop-hue-rotate: ; --tw-backdrop-invert: ; --tw-backdrop-opacity: ; --tw-backdrop-saturate: ; --tw-backdrop-sepia: ; list-style-position: initial; list-style-image: initial; margin: 0px 0px 0px 1rem; padding: 0px; display: flex; flex-direction: column; color: rgb(15, 15, 15); font-family: Söhne, ui-sans-serif, system-ui, -apple-system, &amp;quot;Segoe UI&amp;quot;, Roboto, Ubuntu, Cantarell, &amp;quot;Noto Sans&amp;quot;, sans-serif, &amp;quot;Helvetica Neue&amp;quot;, Arial, &amp;quot;Apple Color Emoji&amp;quot;, &amp;quot;Segoe UI Emoji&amp;quot;, &amp;quot;Segoe UI Symbol&amp;quot;, &amp;quot;Noto Color Emoji&amp;quot;; font-size: 16px; text-align: left;&quot;&gt;&lt;/ul&gt;" style="image;aspect=fixed;perimeter=ellipsePerimeter;html=1;align=center;shadow=0;dashed=0;spacingTop=3;image=img/lib/active_directory/internet_globe.svg;" vertex="1" parent="1">
          <mxGeometry x="340" y="190" width="60" height="60" as="geometry" />
        </mxCell>
        <mxCell id="tjLaSWsOAfRgM3-zYXnQ-31" value="" style="endArrow=open;endFill=1;endSize=12;html=1;rounded=0;entryX=0;entryY=0.25;entryDx=0;entryDy=0;" edge="1" parent="1" target="tjLaSWsOAfRgM3-zYXnQ-24">
          <mxGeometry width="160" relative="1" as="geometry">
            <mxPoint x="190" y="130" as="sourcePoint" />
            <mxPoint x="320" y="200" as="targetPoint" />
          </mxGeometry>
        </mxCell>
        <mxCell id="tjLaSWsOAfRgM3-zYXnQ-32" value="" style="endArrow=open;endFill=1;endSize=12;html=1;rounded=0;exitX=1;exitY=0.483;exitDx=0;exitDy=0;exitPerimeter=0;" edge="1" parent="1" source="tjLaSWsOAfRgM3-zYXnQ-6">
          <mxGeometry width="160" relative="1" as="geometry">
            <mxPoint x="310" y="115" as="sourcePoint" />
            <mxPoint x="390" y="200" as="targetPoint" />
          </mxGeometry>
        </mxCell>
        <mxCell id="tjLaSWsOAfRgM3-zYXnQ-41" value="" style="sketch=0;outlineConnect=0;fontColor=#232F3E;gradientColor=none;fillColor=#7AA116;strokeColor=none;dashed=0;verticalLabelPosition=bottom;verticalAlign=top;align=center;html=1;fontSize=12;fontStyle=0;aspect=fixed;pointerEvents=1;shape=mxgraph.aws4.iot_thing_industrial_pc;" vertex="1" parent="1">
          <mxGeometry x="157.5" y="186" width="28" height="28" as="geometry" />
        </mxCell>
        <mxCell id="tjLaSWsOAfRgM3-zYXnQ-49" value="" style="edgeStyle=orthogonalEdgeStyle;rounded=0;orthogonalLoop=1;jettySize=auto;html=1;" edge="1" parent="1" source="tjLaSWsOAfRgM3-zYXnQ-39" target="tjLaSWsOAfRgM3-zYXnQ-23">
          <mxGeometry relative="1" as="geometry" />
        </mxCell>
        <mxCell id="tjLaSWsOAfRgM3-zYXnQ-39" value="" style="shape=providedRequiredInterface;html=1;verticalLabelPosition=bottom;sketch=0;" vertex="1" parent="1">
          <mxGeometry x="137.5" y="190" width="20" height="20" as="geometry" />
        </mxCell>
        <mxCell id="tjLaSWsOAfRgM3-zYXnQ-47" value="" style="edgeStyle=orthogonalEdgeStyle;rounded=0;orthogonalLoop=1;jettySize=auto;html=1;" edge="1" parent="1" source="tjLaSWsOAfRgM3-zYXnQ-8" target="tjLaSWsOAfRgM3-zYXnQ-46">
          <mxGeometry relative="1" as="geometry">
            <mxPoint x="195" y="80" as="sourcePoint" />
            <mxPoint x="370" y="80" as="targetPoint" />
          </mxGeometry>
        </mxCell>
        <mxCell id="tjLaSWsOAfRgM3-zYXnQ-46" value="" style="shape=providedRequiredInterface;html=1;verticalLabelPosition=bottom;sketch=0;" vertex="1" parent="1">
          <mxGeometry x="270" y="70" width="20" height="20" as="geometry" />
        </mxCell>
        <mxCell id="tjLaSWsOAfRgM3-zYXnQ-50" style="edgeStyle=orthogonalEdgeStyle;rounded=0;orthogonalLoop=1;jettySize=auto;html=1;entryX=1;entryY=0.5;entryDx=0;entryDy=0;entryPerimeter=0;" edge="1" parent="1" source="tjLaSWsOAfRgM3-zYXnQ-19" target="tjLaSWsOAfRgM3-zYXnQ-21">
          <mxGeometry relative="1" as="geometry" />
        </mxCell>
        <mxCell id="tjLaSWsOAfRgM3-zYXnQ-52" value="" style="endArrow=none;html=1;rounded=0;exitX=1;exitY=0.75;exitDx=0;exitDy=0;exitPerimeter=0;entryX=0;entryY=0.7;entryDx=0;entryDy=0;" edge="1" parent="1" source="tjLaSWsOAfRgM3-zYXnQ-23" target="tjLaSWsOAfRgM3-zYXnQ-17">
          <mxGeometry width="50" height="50" relative="1" as="geometry">
            <mxPoint x="520" y="320" as="sourcePoint" />
            <mxPoint x="570" y="270" as="targetPoint" />
          </mxGeometry>
        </mxCell>
        <mxCell id="tjLaSWsOAfRgM3-zYXnQ-54" value="" style="endArrow=classic;html=1;rounded=0;exitX=0.033;exitY=0.144;exitDx=0;exitDy=0;exitPerimeter=0;" edge="1" parent="1" source="tjLaSWsOAfRgM3-zYXnQ-17" target="tjLaSWsOAfRgM3-zYXnQ-24">
          <mxGeometry width="50" height="50" relative="1" as="geometry">
            <mxPoint x="540" y="290" as="sourcePoint" />
            <mxPoint x="570" y="270" as="targetPoint" />
          </mxGeometry>
        </mxCell>
        <mxCell id="tjLaSWsOAfRgM3-zYXnQ-58" style="edgeStyle=orthogonalEdgeStyle;rounded=0;orthogonalLoop=1;jettySize=auto;html=1;exitX=0.75;exitY=1;exitDx=0;exitDy=0;exitPerimeter=0;entryX=0.663;entryY=0.978;entryDx=0;entryDy=0;entryPerimeter=0;" edge="1" parent="1" source="tjLaSWsOAfRgM3-zYXnQ-21" target="tjLaSWsOAfRgM3-zYXnQ-23">
          <mxGeometry relative="1" as="geometry">
            <Array as="points">
              <mxPoint x="785" y="410" />
              <mxPoint x="180" y="410" />
            </Array>
          </mxGeometry>
        </mxCell>
        <mxCell id="tjLaSWsOAfRgM3-zYXnQ-72" style="edgeStyle=orthogonalEdgeStyle;rounded=0;orthogonalLoop=1;jettySize=auto;html=1;exitX=0.5;exitY=1;exitDx=0;exitDy=0;exitPerimeter=0;" edge="1" parent="1" source="tjLaSWsOAfRgM3-zYXnQ-59" target="tjLaSWsOAfRgM3-zYXnQ-63">
          <mxGeometry relative="1" as="geometry" />
        </mxCell>
        <mxCell id="tjLaSWsOAfRgM3-zYXnQ-59" value="Interfaces" style="shape=folder;fontStyle=1;spacingTop=10;tabWidth=40;tabHeight=14;tabPosition=left;html=1;whiteSpace=wrap;" vertex="1" parent="1">
          <mxGeometry x="157.5" y="540" width="352.5" height="160" as="geometry" />
        </mxCell>
        <mxCell id="tjLaSWsOAfRgM3-zYXnQ-60" value="Usuario" style="shape=module;align=left;spacingLeft=20;align=center;verticalAlign=top;whiteSpace=wrap;html=1;" vertex="1" parent="1">
          <mxGeometry x="162" y="640" width="100" height="50" as="geometry" />
        </mxCell>
        <mxCell id="tjLaSWsOAfRgM3-zYXnQ-61" value="Admin" style="shape=module;align=left;spacingLeft=20;align=center;verticalAlign=top;whiteSpace=wrap;html=1;" vertex="1" parent="1">
          <mxGeometry x="400" y="640" width="100" height="50" as="geometry" />
        </mxCell>
        <mxCell id="tjLaSWsOAfRgM3-zYXnQ-62" value="Empleado" style="shape=module;align=left;spacingLeft=20;align=center;verticalAlign=top;whiteSpace=wrap;html=1;" vertex="1" parent="1">
          <mxGeometry x="280" y="640" width="100" height="50" as="geometry" />
        </mxCell>
        <mxCell id="tjLaSWsOAfRgM3-zYXnQ-63" value="Logica" style="shape=folder;fontStyle=1;spacingTop=10;tabWidth=40;tabHeight=14;tabPosition=left;html=1;whiteSpace=wrap;" vertex="1" parent="1">
          <mxGeometry x="152.5" y="730" width="362.5" height="240" as="geometry" />
        </mxCell>
        <mxCell id="tjLaSWsOAfRgM3-zYXnQ-64" value="Creación de facturas" style="shape=module;align=left;spacingLeft=20;align=center;verticalAlign=top;whiteSpace=wrap;html=1;" vertex="1" parent="1">
          <mxGeometry x="167" y="780" width="100" height="50" as="geometry" />
        </mxCell>
        <mxCell id="tjLaSWsOAfRgM3-zYXnQ-65" value="Gestión de avisos" style="shape=module;align=left;spacingLeft=20;align=center;verticalAlign=top;whiteSpace=wrap;html=1;" vertex="1" parent="1">
          <mxGeometry x="405" y="890" width="100" height="50" as="geometry" />
        </mxCell>
        <mxCell id="tjLaSWsOAfRgM3-zYXnQ-66" value="Gestión de citas" style="shape=module;align=left;spacingLeft=20;align=center;verticalAlign=top;whiteSpace=wrap;html=1;" vertex="1" parent="1">
          <mxGeometry x="285" y="890" width="100" height="50" as="geometry" />
        </mxCell>
        <mxCell id="tjLaSWsOAfRgM3-zYXnQ-67" value="Gestión documentos" style="shape=module;align=left;spacingLeft=20;align=center;verticalAlign=top;whiteSpace=wrap;html=1;" vertex="1" parent="1">
          <mxGeometry x="167" y="890" width="100" height="50" as="geometry" />
        </mxCell>
        <mxCell id="tjLaSWsOAfRgM3-zYXnQ-68" value="Gestión de empleados" style="shape=module;align=left;spacingLeft=20;align=center;verticalAlign=top;whiteSpace=wrap;html=1;" vertex="1" parent="1">
          <mxGeometry x="405" y="780" width="100" height="50" as="geometry" />
        </mxCell>
        <mxCell id="tjLaSWsOAfRgM3-zYXnQ-69" value="Gestión de animales" style="shape=module;align=left;spacingLeft=20;align=center;verticalAlign=top;whiteSpace=wrap;html=1;" vertex="1" parent="1">
          <mxGeometry x="285" y="780" width="100" height="50" as="geometry" />
        </mxCell>
        <mxCell id="tjLaSWsOAfRgM3-zYXnQ-75" value="" style="edgeStyle=orthogonalEdgeStyle;rounded=0;orthogonalLoop=1;jettySize=auto;html=1;entryX=0.269;entryY=1;entryDx=0;entryDy=0;entryPerimeter=0;" edge="1" parent="1" source="tjLaSWsOAfRgM3-zYXnQ-73" target="tjLaSWsOAfRgM3-zYXnQ-63">
          <mxGeometry relative="1" as="geometry" />
        </mxCell>
        <mxCell id="tjLaSWsOAfRgM3-zYXnQ-73" value="Bases de datos" style="shape=folder;fontStyle=1;spacingTop=10;tabWidth=40;tabHeight=14;tabPosition=left;html=1;whiteSpace=wrap;" vertex="1" parent="1">
          <mxGeometry x="210" y="1020" width="80" height="60" as="geometry" />
        </mxCell>
        <mxCell id="tjLaSWsOAfRgM3-zYXnQ-74" value="Servicios&amp;nbsp;" style="shape=folder;fontStyle=1;spacingTop=10;tabWidth=40;tabHeight=14;tabPosition=left;html=1;whiteSpace=wrap;" vertex="1" parent="1">
          <mxGeometry x="405" y="1020" width="75" height="60" as="geometry" />
        </mxCell>
        <mxCell id="tjLaSWsOAfRgM3-zYXnQ-77" style="edgeStyle=orthogonalEdgeStyle;rounded=0;orthogonalLoop=1;jettySize=auto;html=1;exitX=0;exitY=0;exitDx=40;exitDy=0;exitPerimeter=0;entryX=0.807;entryY=1;entryDx=0;entryDy=0;entryPerimeter=0;" edge="1" parent="1" source="tjLaSWsOAfRgM3-zYXnQ-74" target="tjLaSWsOAfRgM3-zYXnQ-63">
          <mxGeometry relative="1" as="geometry" />
        </mxCell>
      </root>
    </mxGraphModel>
  </diagram>
</mxfile>
